{
  "accessors": [
    {
      "bufferView": 2,
      "componentType": 5126,
      "count": 100,
      "max": [
        0.6798089742660522,
        0.6902959942817688,
        1.1889020204544067
      ],
      "min": [
        -0.6798089742660522,
        -0.6486660242080688,
        -0.012683999724686146
      ],
      "type": "VEC3",
      "byteOffset": 0
    },
    {
      "bufferView": 2,
      "byteOffset": 1200,
      "componentType": 5126,
      "count": 100,
      "max": [
        0.758634090423584,
        0.770340085029602,
        1
      ],
      "min": [
        -0.758634090423584,
        -0.7358951568603516,
        -0.8334394693374634
      ],
      "type": "VEC3"
    },
    {
      "bufferView": 1,
      "componentType": 5126,
      "count": 100,
      "max": [
        0.7667009830474854,
        0.9998559951782227
      ],
      "min": [
        0.00014400000509340316,
        0.00014400000509340316
      ],
      "type": "VEC2",
      "byteOffset": 0
    },
    {
      "bufferView": 0,
      "componentType": 5125,
      "count": 384,
      "type": "SCALAR",
      "byteOffset": 0
    },
    {
      "bufferView": 2,
      "byteOffset": 2400,
      "componentType": 5126,
      "count": 810,
      "max": [
        1.561589002609253,
        1.5517959594726562,
        2.5381898880004883
      ],
      "min": [
        -1.7873189449310303,
        -1.6225780248641968,
        0.19236299395561218
      ],
      "type": "VEC3"
    },
    {
      "bufferView": 2,
      "byteOffset": 12120,
      "componentType": 5126,
      "count": 810,
      "max": [
        0.8857099413871765,
        0.7086220383644104,
        0.9607999920845032
      ],
      "min": [
        -0.8434540033340454,
        -0.9988254308700562,
        0.018001297488808632
      ],
      "type": "VEC3"
    },
    {
      "bufferView": 1,
      "byteOffset": 800,
      "componentType": 5126,
      "count": 810,
      "max": [
        0.4320339858531952,
        0.9928460121154785
      ],
      "min": [
        0.024910999462008476,
        0.5384039878845215
      ],
      "type": "VEC2"
    },
    {
      "bufferView": 0,
      "byteOffset": 1536,
      "componentType": 5125,
      "count": 3840,
      "type": "SCALAR"
    },
    {
      "bufferView": 2,
      "byteOffset": 21840,
      "componentType": 5126,
      "count": 480,
      "max": [
        1.1888550519943237,
        1.0872939825057983,
        2.3782970905303955
      ],
      "min": [
        -1.2494670152664185,
        -1.412750005722046,
        0.7750980257987976
      ],
      "type": "VEC3"
    },
    {
      "bufferView": 0,
      "byteOffset": 16896,
      "componentType": 5125,
      "count": 940,
      "type": "SCALAR"
    },
    {
      "bufferView": 2,
      "byteOffset": 27600,
      "componentType": 5126,
      "count": 5320,
      "max": [
        1.1984339952468872,
        1.0973680019378662,
        2.3674139976501465
      ],
      "min": [
        -1.258641004562378,
        -1.3897229433059692,
        0.7643619775772095
      ],
      "type": "VEC3"
    },
    {
      "bufferView": 2,
      "byteOffset": 91440,
      "componentType": 5126,
      "count": 5320,
      "max": [
        0.9910292029380798,
        0.9995615482330322,
        0.9998831748962402
      ],
      "min": [
        -0.9865317940711975,
        -0.9692582488059998,
        -0.996077299118042
      ],
      "type": "VEC3"
    },
    {
      "bufferView": 1,
      "byteOffset": 7280,
      "componentType": 5126,
      "count": 5320,
      "max": [
        1,
        1
      ],
      "min": [
        0,
        0.5
      ],
      "type": "VEC2"
    },
    {
      "bufferView": 0,
      "byteOffset": 20656,
      "componentType": 5125,
      "count": 24624,
      "type": "SCALAR"
    }
  ],
  "asset": {
    "extras": {
      "author": "daniel (https://sketchfab.com/enviromaster)",
      "license": "CC-BY-4.0 (http://creativecommons.org/licenses/by/4.0/)",
      "source": "https://sketchfab.com/3d-models/chinese-money-plant-c571361c0ce34dfbb25c296cb6aad152",
      "title": "Chinese Money Plant"
    },
    "generator": "Sketchfab-12.63.0",
    "version": "2.0"
  },
  "bufferViews": [
    {
      "buffer": 0,
      "byteLength": 119152,
      "name": "floatBufferViews",
      "target": 34963,
      "byteOffset": 0
    },
    {
      "buffer": 0,
      "byteLength": 49840,
      "byteOffset": 119152,
      "byteStride": 8,
      "name": "floatBufferViews",
      "target": 34962
    },
    {
      "buffer": 0,
      "byteLength": 155280,
      "byteOffset": 168992,
      "byteStride": 12,
      "name": "floatBufferViews",
      "target": 34962
    },
    {
      "buffer": 0,
      "byteOffset": 324272,
      "byteLength": 468091
    },
    {
      "buffer": 0,
      "byteOffset": 792368,
      "byteLength": 343347
    }
  ],
  "buffers": [
    {
      "name": "plant",
      "byteLength": 1135720,
      "uri": "data:application/octet-stream;base64,"
    }
  ],
  "images": [
    {
      "name": "Material.001_baseColor",
      "bufferView": 3,
      "mimeType": "image/png"
    },
    {
      "name": "Material.002_baseColor",
      "bufferView": 4,
      "mimeType": "image/png"
    }
  ],
  "materials": [
    {
      "doubleSided": true,
      "name": "Material.001",
      "pbrMetallicRoughness": {
        "baseColorTexture": {
          "index": 0,
          "texCoord": 0
        },
        "metallicFactor": 0,
        "roughnessFactor": 0,
        "baseColorFactor": [
          1,
          1,
          1,
          1
        ]
      },
      "emissiveFactor": [
        0,
        0,
        0
      ],
      "alphaMode": "OPAQUE"
    },
    {
      "doubleSided": true,
      "name": "Material.002",
      "pbrMetallicRoughness": {
        "baseColorTexture": {
          "index": 1,
          "texCoord": 0
        },
        "metallicFactor": 0,
        "baseColorFactor": [
          1,
          1,
          1,
          1
        ],
        "roughnessFactor": 1
      },
      "emissiveFactor": [
        0,
        0,
        0
      ],
      "alphaMode": "OPAQUE"
    },
    {
      "doubleSided": true,
      "name": "Material.004",
      "pbrMetallicRoughness": {
        "baseColorFactor": [
          0.052861,
          0.078187,
          0.042311,
          1
        ],
        "metallicFactor": 0,
        "roughnessFactor": 0.8063508326896291
      },
      "emissiveFactor": [
        0,
        0,
        0
      ],
      "alphaMode": "OPAQUE"
    }
  ],
  "meshes": [
    {
      "name": "Object_0",
      "primitives": [
        {
          "attributes": {
            "NORMAL": 1,
            "POSITION": 0,
            "TEXCOORD_0": 2
          },
          "indices": 3,
          "material": 0,
          "mode": 4
        }
      ]
    },
    {
      "name": "Object_1",
      "primitives": [
        {
          "attributes": {
            "NORMAL": 5,
            "POSITION": 4,
            "TEXCOORD_0": 6
          },
          "indices": 7,
          "material": 1,
          "mode": 4
        }
      ]
    },
    {
      "name": "Object_2",
      "primitives": [
        {
          "attributes": {
            "POSITION": 8
          },
          "indices": 9,
          "material": 2,
          "mode": 1
        }
      ]
    },
    {
      "name": "Object_3",
      "primitives": [
        {
          "attributes": {
            "NORMAL": 11,
            "POSITION": 10,
            "TEXCOORD_0": 12
          },
          "indices": 13,
          "material": 2,
          "mode": 4
        }
      ]
    }
  ],
  "nodes": [
    {
      "children": [
        1
      ],
      "matrix": [
        1,
        0,
        0,
        0,
        0,
        2.220446049250313e-16,
        -1,
        0,
        0,
        1,
        2.220446049250313e-16,
        0,
        0,
        0,
        0,
        1
      ],
      "name": "Sketchfab_model"
    },
    {
      "children": [
        2,
        3,
        4,
        5
      ],
      "name": "Chinese Money Plant .obj.cleaner.materialmerger.gles"
    },
    {
      "mesh": 0,
      "name": "Object_2"
    },
    {
      "mesh": 1,
      "name": "Object_3"
    },
    {
      "mesh": 2,
      "name": "Object_4"
    },
    {
      "mesh": 3,
      "name": "Object_5"
    }
  ],
  "samplers": [
    {
      "magFilter": 9729,
      "minFilter": 9987,
      "wrapS": 10497,
      "wrapT": 10497
    }
  ],
  "scene": 0,
  "scenes": [
    {
      "name": "Sketchfab_Scene",
      "nodes": [
        0
      ]
    }
  ],
  "textures": [
    {
      "sampler": 0,
      "source": 0
    },
    {
      "sampler": 0,
      "source": 1
    }
  ]
}
